# xmcd CD database file
#
# Track frame offsets:
#	150
#	30032
#	57036
#	74107
#	119723
#	132345
#	199873
#
# Disc length: 2839 seconds
#
# Revision: 0
# Processed by: cddbd v1.5.2PL0 Copyright (c) Steve Scherf et al.
# Submitted via: CDex 1.51
#
DISCID=650b1507
DTITLE=Petr Zeman a Jan Cambal - Pan tydne
DYEAR=2000
DGENRE=New Age
TTITLE0=Amulet navratu - 1. den
TTITLE1=Kristalovi hoste - 2. den
TTITLE2=Duhove pilire - 3. den
TTITLE3=Jaskyne k prasknuti - 4. den
TTITLE4=Paty den stal za to
TTITLE5=Brana Hada - 6. den
TTITLE6=Utociste jinam - 7. den
EXTD=YEAR: 2000
EXTT0=
EXTT1=
EXTT2=
EXTT3=
EXTT4=
EXTT5=
EXTT6=
PLAYORDER=
